<?xml version="1.0" encoding="utf-8"?>
<!-- Generator: Adobe Illustrator 16.0.0, SVG Export Plug-In . SVG Version: 6.00 Build 0)  -->
<!DOCTYPE svg PUBLIC "-//W3C//DTD SVG 1.1//EN" "http://www.w3.org/Graphics/SVG/1.1/DTD/svg11.dtd">
<svg version="1.1" id="Layer_1" xmlns="http://www.w3.org/2000/svg" xmlns:xlink="http://www.w3.org/1999/xlink" x="0px" y="0px"
	 width="314.828px" height="301.757px" viewBox="0 0 314.828 301.757" enable-background="new 0 0 314.828 301.757"
	 xml:space="preserve">
<path fill="none" stroke="#000000" stroke-width="15" stroke-linecap="round" stroke-linejoin="round" stroke-miterlimit="10" d="
	M212.169,102.027"/>
<path fill="none" stroke="#000000" stroke-width="15" stroke-linecap="round" stroke-linejoin="round" stroke-miterlimit="10" d="
	M299.96,63.741"/>
<g>
	
		<path fill="none" stroke="#000000" stroke-width="49.1355" stroke-linecap="round" stroke-linejoin="round" stroke-miterlimit="10" d="
		M126.587,153.082c0,0-2.317-50.06,0.98-77.554c2.468-20.575,43.998-51.679,80.003-48.784c40.727,3.274,62.018,18.081,62.018,18.081
		"/>
	
		<path fill="none" stroke="#29ABE2" stroke-width="42.2566" stroke-linecap="round" stroke-linejoin="round" stroke-miterlimit="10" d="
		M126.587,153.082c0,0-2.317-50.06,0.98-77.554c2.468-20.575,43.998-51.679,80.003-48.784c40.727,3.274,62.018,18.081,62.018,18.081
		"/>
</g>
<path fill="none" stroke="#000000" stroke-width="15" stroke-linecap="round" stroke-linejoin="round" stroke-miterlimit="10" d="
	M212.169,109.027"/>
<path fill="none" stroke="#000000" stroke-width="15" stroke-linecap="round" stroke-linejoin="round" stroke-miterlimit="10" d="
	M299.96,70.741"/>
<path fill="none" stroke="#000000" stroke-width="15" stroke-linecap="round" stroke-linejoin="round" stroke-miterlimit="10" d="
	M212.169,110.027"/>
<path fill="none" stroke="#000000" stroke-width="15" stroke-linecap="round" stroke-linejoin="round" stroke-miterlimit="10" d="
	M299.96,71.741"/>
<path fill="none" stroke="#000000" stroke-width="15" stroke-linecap="round" stroke-linejoin="round" stroke-miterlimit="10" d="
	M212.169,111.027"/>
<path fill="none" stroke="#000000" stroke-width="15" stroke-linecap="round" stroke-linejoin="round" stroke-miterlimit="10" d="
	M299.96,72.741"/>
<path fill="none" stroke="#000000" stroke-width="15" stroke-linecap="round" stroke-linejoin="round" stroke-miterlimit="10" d="
	M210.169,98.277"/>
<path fill="none" stroke="#000000" stroke-width="15" stroke-linecap="round" stroke-linejoin="round" stroke-miterlimit="10" d="
	M297.96,59.991"/>
<path fill="none" stroke="#000000" stroke-width="15" stroke-linecap="round" stroke-linejoin="round" stroke-miterlimit="10" d="
	M212.169,113.027"/>
<path fill="none" stroke="#000000" stroke-width="15" stroke-linecap="round" stroke-linejoin="round" stroke-miterlimit="10" d="
	M299.96,74.741"/>
<path fill="none" stroke="#000000" stroke-width="15" stroke-linecap="round" stroke-linejoin="round" stroke-miterlimit="10" d="
	M212.169,114.027"/>
<path fill="none" stroke="#000000" stroke-width="15" stroke-linecap="round" stroke-linejoin="round" stroke-miterlimit="10" d="
	M299.96,75.741"/>
<path fill="none" stroke="#000000" stroke-width="15" stroke-linecap="round" stroke-linejoin="round" stroke-miterlimit="10" d="
	M211.919,101.777"/>
<path fill="none" stroke="#000000" stroke-width="15" stroke-linecap="round" stroke-linejoin="round" stroke-miterlimit="10" d="
	M299.71,63.491"/>
<path fill="none" stroke="#000000" stroke-width="15" stroke-linecap="round" stroke-linejoin="round" stroke-miterlimit="10" d="
	M212.169,116.027"/>
<path fill="none" stroke="#000000" stroke-width="15" stroke-linecap="round" stroke-linejoin="round" stroke-miterlimit="10" d="
	M299.96,77.741"/>
<path fill="none" stroke="#000000" stroke-width="15" stroke-linecap="round" stroke-linejoin="round" stroke-miterlimit="10" d="
	M212.169,117.027"/>
<path fill="none" stroke="#000000" stroke-width="15" stroke-linecap="round" stroke-linejoin="round" stroke-miterlimit="10" d="
	M299.96,78.741"/>
<path fill="none" stroke="#000000" stroke-width="15" stroke-linecap="round" stroke-linejoin="round" stroke-miterlimit="10" d="
	M212.169,118.027"/>
<path fill="none" stroke="#000000" stroke-width="15" stroke-linecap="round" stroke-linejoin="round" stroke-miterlimit="10" d="
	M299.96,79.741"/>
<path fill="none" stroke="#000000" stroke-width="15" stroke-linecap="round" stroke-linejoin="round" stroke-miterlimit="10" d="
	M212.169,119.027"/>
<path fill="none" stroke="#000000" stroke-width="15" stroke-linecap="round" stroke-linejoin="round" stroke-miterlimit="10" d="
	M299.96,80.741"/>
<g>
	<path fill="none" stroke="#000000" stroke-width="50" stroke-linecap="round" stroke-miterlimit="10" d="M212.169,115.027"/>
	<path fill="none" stroke="#00FF00" stroke-width="43" stroke-linecap="round" stroke-linejoin="round" stroke-miterlimit="10" d="
		M212.169,115.027"/>
</g>
<g>
	<path fill="none" stroke="#000000" stroke-width="50" stroke-linecap="round" stroke-miterlimit="10" d="M287.483,83.556"/>
	<path fill="none" stroke="#00FF00" stroke-width="43" stroke-linecap="round" stroke-linejoin="round" stroke-miterlimit="10" d="
		M287.483,83.556"/>
</g>
<g>
	<path fill="none" stroke="#000000" stroke-width="50" stroke-linecap="round" stroke-linejoin="round" stroke-miterlimit="10" d="
		M46.796,258.015c0,0,17.51,15.051,59.041,18.541c36.717,3.085,79.067-30.069,81.584-51.999c3.54-30.858,3.878-14.957,1.5-115.001"
		/>
	<path fill="none" stroke="#00FF00" stroke-width="43" stroke-linecap="round" stroke-linejoin="round" stroke-miterlimit="10" d="
		M46.796,258.015c0,0,17.51,15.051,59.041,18.541c36.717,3.085,79.067-30.069,81.584-51.999c3.54-30.858,3.878-14.957,1.5-115.001"
		/>
</g>
<g>
	
		<path fill="none" stroke="#000000" stroke-width="49.1355" stroke-linecap="round" stroke-linejoin="round" stroke-miterlimit="10" d="
		M127.921,120.556c0,0-1.499,24-0.354,54.229c0.784,20.706,43.998,51.677,80.003,48.783c40.727-3.274,57.896-17.395,57.896-17.395"
		/>
	
		<path fill="none" stroke="#29ABE2" stroke-width="42.2566" stroke-linecap="round" stroke-linejoin="round" stroke-miterlimit="10" d="
		M127.921,120.556c0,0-1.499,24-0.354,54.229c0.784,20.706,43.998,51.677,80.003,48.783c40.727-3.274,57.896-17.395,57.896-17.395"
		/>
</g>
<line fill="none" stroke="#000000" stroke-width="15" stroke-linecap="round" stroke-linejoin="round" stroke-miterlimit="10" x1="9.92" y1="78.495" x2="154.874" y2="19.228"/>
<g>
	
		<line fill="none" stroke="#000000" stroke-width="50" stroke-linecap="round" stroke-linejoin="round" stroke-miterlimit="10" x1="177.921" y1="112.556" x2="68.921" y2="106.556"/>
	
		<line fill="none" stroke="#00FF00" stroke-width="43" stroke-linecap="round" stroke-linejoin="round" stroke-miterlimit="10" x1="177.921" y1="112.556" x2="68.921" y2="106.556"/>
</g>
<path fill="none" stroke="#000000" stroke-width="15" stroke-linecap="round" stroke-linejoin="round" stroke-miterlimit="10" d="
	M7.5,81.864l199.828,10.163v118.667c0,2.43,0-2.496,0,0c0,40.022-41.18,83.227-97.074,83.227c-54.654,0-97.948-28.457-99.891-66.457
	h-0.271L7.5,81.864z"/>
<g>
	<g>
		<path fill="#00FF00" d="M182.421,132.218c-0.031,0.953,0.101,1.888,0.179,2.835c0.086,1.029-0.33,1.116-1.318,0.904
			c-1.789-0.385-4.336-1.61-5.398-3.163c-1.085-1.586-3.686-0.088-2.59,1.514c1.757,2.567,5.536,4.576,8.628,4.743
			c1.432,0.077,3.163-0.793,3.524-2.273c0.369-1.514-0.074-3.028-0.024-4.56C185.483,130.282,182.483,130.288,182.421,132.218
			L182.421,132.218z"/>
	</g>
</g>
<g>
	<g>
		<path fill="#00FF00" d="M172.421,139.051c-0.094-0.989-0.409-1.704-0.995-2.498c-0.707-0.959-0.304-2.549-0.059-3.604
			c0.438-1.882-2.454-2.681-2.893-0.797c-0.326,1.397-0.561,2.87-0.27,4.297c0.104,0.504,0.23,0.92,0.469,1.376
			c0.209,0.402,0.702,0.751,0.747,1.226C169.602,140.96,172.603,140.978,172.421,139.051L172.421,139.051z"/>
	</g>
</g>
<g>
	<g>
		<path fill="#00FF00" d="M168.421,132.051c0,1.833,0,3.667,0,5.5c0,1.935,3,1.935,3,0c0-1.833,0-3.667,0-5.5
			C171.421,130.116,168.421,130.116,168.421,132.051L168.421,132.051z"/>
	</g>
</g>
<g>
	<g>
		<path fill="#00FF00" d="M167.588,132.718c-0.113,2.141,0.515,4.148,0.887,6.231c0.34,1.902,3.23,1.094,2.893-0.797
			c-0.326-1.827-0.879-3.559-0.779-5.435C170.69,130.783,167.689,130.794,167.588,132.718L167.588,132.718z"/>
	</g>
</g>
<g>
	<g>
		<path fill="#00FF00" d="M174.883,139.627c-0.917-1.873-1.408-3.841-1.629-5.909c-0.633,0.482-1.266,0.964-1.898,1.446
			c3.009,1.013,5.118,3.115,8.434,3.257c3.187,0.137,6.401-2.002,8.692-3.977c1.468-1.265-0.664-3.377-2.121-2.121
			c-2.174,1.873-4.98,3.509-7.95,2.939c-2.207-0.423-4.108-2.268-6.258-2.991c-0.861-0.29-1.999,0.497-1.898,1.446
			c0.278,2.612,0.881,5.057,2.039,7.423C173.144,142.878,175.73,141.357,174.883,139.627L174.883,139.627z"/>
	</g>
</g>
<g>
	<g>
		<path fill="#00FF00" d="M198.921,129.718c0-5.944,0-11.89,0-17.834c0-1.935-3-1.935-3,0c0,5.944,0,11.89,0,17.834
			C195.921,131.652,198.921,131.652,198.921,129.718L198.921,129.718z"/>
	</g>
</g>
<g>
	<g>
		<path fill="#00FF00" d="M195.921,110.718c0,7.277,0,14.556,0,21.833c0,1.935,3,1.935,3,0c0-7.277,0-14.556,0-21.833
			C198.921,108.783,195.921,108.783,195.921,110.718L195.921,110.718z"/>
	</g>
</g>
<g>
	<g>
		<path fill="#00FF00" d="M199.921,133.051c0-10.777,0-21.556,0-32.333c0-1.935-3-1.935-3,0c0,10.777,0,21.556,0,32.333
			C196.921,134.985,199.921,134.985,199.921,133.051L199.921,133.051z"/>
	</g>
</g>
<g>
	<g>
		<path fill="#00FF00" d="M196.588,104.384c1.935,0,1.935-3,0-3S194.653,104.384,196.588,104.384L196.588,104.384z"/>
	</g>
</g>
<g>
	<g>
		<path fill="#00FF00" d="M196.254,103.384c1.935,0,1.935-3,0-3S194.319,103.384,196.254,103.384L196.254,103.384z"/>
	</g>
</g>
<g>
	<g>
		<path fill="#00FF00" d="M196.254,103.384c1.935,0,1.935-3,0-3S194.319,103.384,196.254,103.384L196.254,103.384z"/>
	</g>
</g>
<g>
	<g>
		<path fill="#00FF00" d="M196.254,102.551c1.935,0,1.935-3,0-3S194.319,102.551,196.254,102.551L196.254,102.551z"/>
	</g>
</g>
<g>
	<g>
		<path fill="#00FF00" d="M195.319,101.997c0.721-0.103,1.493,0.049,2.203,0.167c0.806,0.134,1.611-0.198,1.845-1.048
			c0.199-0.726-0.24-1.711-1.048-1.845c-1.291-0.215-2.495-0.352-3.797-0.167c-0.812,0.115-1.243,1.134-1.048,1.845
			C193.712,101.813,194.511,102.112,195.319,101.997L195.319,101.997z"/>
	</g>
</g>
<g>
	<g>
		<path fill="#00FF00" d="M188.082,122.747c1.059,3.094,1.608,6.203,1.672,9.471c2.946-0.398,5.893-0.798,8.839-1.196
			c-1.144-6.089-6.99-10.883-12.398-5.679c-0.847,0.814-1.483,1.953-2.088,2.952c-0.96,1.585-0.224,1.271-1.984,1.253
			c-3.401-0.034-6.058,0.118-8.716,2.488c-4.341,3.87,2.047,10.212,6.363,6.363c-0.543,0.151-0.348,0.177,0.586,0.078
			c0.881-0.013,1.77,0.07,2.651,0.079c1.968,0.02,3.882-0.556,5.519-1.62c1.511-0.982,2.452-2.586,3.352-4.1
			c1.656-2.784-0.604,1.479-2.476-1.445c0.347,0.542,0.397,1.407,0.514,2.022c0.949,5.057,8.936,3.799,8.839-1.196
			c-0.078-4.021-0.689-8.054-1.994-11.863C194.892,114.896,186.196,117.241,188.082,122.747L188.082,122.747z"/>
	</g>
</g>
<g>
	<g>
		<path fill="#00FF00" d="M194.525,102.493c1.935,0,1.935-3,0-3S192.591,102.493,194.525,102.493L194.525,102.493z"/>
	</g>
</g>
<line fill="none" stroke="#00FF00" stroke-miterlimit="10" x1="190.879" y1="99.201" x2="199.441" y2="99.618"/>
<path fill="none" stroke="#000000" stroke-width="15" stroke-miterlimit="10" d="M110.847,75.771L110.847,75.771
	C114.81,37.388,155.699,7.5,208.98,7.5s94.348,30.056,98.348,68.056l0,0v94.486c-2,38.383-43.693,69.655-98.35,69.655
	c-55.893,0-98.501-32.53-98.501-72.556C110.478,166.071,110.847,75.771,110.847,75.771z"/>
<g>
	<g>
		<path fill="#00FF00" d="M99.254,99.389c7.596-0.065,15.237-0.904,22.769,0.446c1.891,0.339,2.699-2.552,0.797-2.893
			C115,95.54,107.142,96.32,99.254,96.389C97.32,96.405,97.318,99.405,99.254,99.389L99.254,99.389z"/>
	</g>
</g>
<g>
	<g>
		<path fill="#00FF00" d="M101.421,97.889c6.914,0.097,13.753,1.237,20.667,1.334c1.936,0.027,1.933-2.973,0-3
			c-6.914-0.097-13.753-1.237-20.667-1.334C99.485,94.861,99.488,97.861,101.421,97.889L101.421,97.889z"/>
	</g>
</g>
<g>
	<g>
		<path fill="#00FF00" d="M91.942,100.409c11.543,0.54,23.086,1.082,34.629,1.623c-0.054-0.003,0.155-6.725,0-6.732
			c-7.603-0.356-15.206-0.712-22.809-1.069c0.054,0.003-0.156,6.725,0,6.732c9.268,0.435,18.536,0.869,27.804,1.304
			c-0.054-0.003,0.155-6.725,0-6.732c-4.772-0.224-9.546-0.446-14.318-0.671c0.054,0.003-0.156,6.725,0,6.732
			c4.772,0.224,9.546,0.446,14.318,0.671c0-2.244,0-4.488,0-6.732c-9.268-0.434-18.536-0.868-27.804-1.304c0,2.244,0,4.488,0,6.732
			c7.603,0.356,15.206,0.712,22.809,1.069c0-2.244,0-4.488,0-6.732c-11.543-0.54-23.086-1.082-34.629-1.623
			C91.996,93.68,91.787,100.401,91.942,100.409L91.942,100.409z"/>
	</g>
</g>
<g>
	<g>
		<path fill="#00FF00" d="M100.616,129.903c11.539,0.621,23.077,1.255,34.615,1.882c0-8.128,0-16.255,0-24.383
			c-7.6-0.409-15.2-0.816-22.799-1.246c0,8.128,0,16.255,0,24.383c9.264,0.512,18.527,1.03,27.792,1.522
			c-0.255-0.014,0.626-24.348,0-24.383c-4.771-0.266-9.542-0.514-14.313-0.772c0.256,0.014-0.623,24.349,0,24.383
			c4.771,0.259,9.542,0.507,14.313,0.772c0-8.128,0-16.255,0-24.383c-9.265-0.492-18.528-1.011-27.792-1.522
			c0.268,0.015-0.637,24.347,0,24.383c7.599,0.43,15.199,0.837,22.799,1.246c-0.254-0.014,0.622-24.349,0-24.383
			c-11.538-0.627-23.076-1.261-34.615-1.882C100.868,105.534,99.996,129.87,100.616,129.903L100.616,129.903z"/>
	</g>
</g>
<g>
	<g>
		<path fill="#00FF00" d="M90.616,117.903c11.539,0.621,23.077,1.255,34.615,1.882c0-8.128,0-16.255,0-24.383
			c-7.6-0.409-15.2-0.816-22.799-1.246c0,8.128,0,16.255,0,24.383c9.264,0.512,18.527,1.03,27.792,1.522
			c-0.255-0.014,0.626-24.348,0-24.383c-4.771-0.266-9.542-0.514-14.313-0.772c0.256,0.014-0.623,24.349,0,24.383
			c4.771,0.259,9.542,0.507,14.313,0.772c0-8.128,0-16.255,0-24.383c-9.265-0.492-18.528-1.011-27.792-1.522
			c0.268,0.015-0.637,24.347,0,24.383c7.599,0.43,15.199,0.837,22.799,1.246c-0.254-0.014,0.622-24.349,0-24.383
			c-11.538-0.627-23.076-1.261-34.615-1.882C90.868,93.534,89.996,117.87,90.616,117.903L90.616,117.903z"/>
	</g>
</g>
<line fill="none" stroke="#000000" stroke-width="15" stroke-linecap="round" stroke-linejoin="round" stroke-miterlimit="10" x1="299.96" y1="53.741" x2="212.169" y2="92.027"/>
<line fill="none" stroke="#000000" stroke-width="15" stroke-linecap="round" stroke-linejoin="round" stroke-miterlimit="10" x1="299.96" y1="54.741" x2="212.169" y2="93.027"/>
<line fill="none" stroke="#000000" stroke-width="15" stroke-linecap="round" stroke-linejoin="round" stroke-miterlimit="10" x1="299.96" y1="55.741" x2="212.169" y2="94.027"/>
<path fill="none" stroke="#000000" stroke-width="15" stroke-linecap="round" stroke-linejoin="round" stroke-miterlimit="10" d="
	M211.419,105.027"/>
<path fill="none" stroke="#000000" stroke-width="15" stroke-linecap="round" stroke-linejoin="round" stroke-miterlimit="10" d="
	M299.21,66.741"/>
<path fill="none" stroke="#000000" stroke-width="15" stroke-linecap="round" stroke-linejoin="round" stroke-miterlimit="10" d="
	M212.169,96.027"/>
<path fill="none" stroke="#000000" stroke-width="15" stroke-linecap="round" stroke-linejoin="round" stroke-miterlimit="10" d="
	M299.96,57.741"/>
<path fill="none" stroke="#000000" stroke-width="15" stroke-linecap="round" stroke-linejoin="round" stroke-miterlimit="10" d="
	M212.169,97.027"/>
<path fill="none" stroke="#000000" stroke-width="15" stroke-linecap="round" stroke-linejoin="round" stroke-miterlimit="10" d="
	M299.96,58.741"/>
<path fill="none" stroke="#000000" stroke-width="15" stroke-linecap="round" stroke-linejoin="round" stroke-miterlimit="10" d="
	M212.169,98.027"/>
<path fill="none" stroke="#000000" stroke-width="15" stroke-linecap="round" stroke-linejoin="round" stroke-miterlimit="10" d="
	M299.96,59.741"/>
<path fill="none" stroke="#000000" stroke-width="15" stroke-linecap="round" stroke-linejoin="round" stroke-miterlimit="10" d="
	M212.169,99.027"/>
<path fill="none" stroke="#000000" stroke-width="15" stroke-linecap="round" stroke-linejoin="round" stroke-miterlimit="10" d="
	M299.96,60.741"/>
<path fill="none" stroke="#000000" stroke-width="15" stroke-linecap="round" stroke-linejoin="round" stroke-miterlimit="10" d="
	M212.169,100.027"/>
<path fill="none" stroke="#000000" stroke-width="15" stroke-linecap="round" stroke-linejoin="round" stroke-miterlimit="10" d="
	M299.96,61.741"/>
<path fill="none" stroke="#000000" stroke-width="15" stroke-linecap="round" stroke-linejoin="round" stroke-miterlimit="10" d="
	M212.169,101.027"/>
<path fill="none" stroke="#000000" stroke-width="15" stroke-linecap="round" stroke-linejoin="round" stroke-miterlimit="10" d="
	M299.96,62.741"/>
<path fill="none" stroke="#000000" stroke-width="15" stroke-linecap="round" stroke-linejoin="round" stroke-miterlimit="10" d="
	M212.169,103.027"/>
<path fill="none" stroke="#000000" stroke-width="15" stroke-linecap="round" stroke-linejoin="round" stroke-miterlimit="10" d="
	M299.96,64.741"/>
<path fill="none" stroke="#000000" stroke-width="15" stroke-linecap="round" stroke-linejoin="round" stroke-miterlimit="10" d="
	M212.169,104.027"/>
<path fill="none" stroke="#000000" stroke-width="15" stroke-linecap="round" stroke-linejoin="round" stroke-miterlimit="10" d="
	M299.96,65.741"/>
<path fill="none" stroke="#000000" stroke-width="15" stroke-linecap="round" stroke-linejoin="round" stroke-miterlimit="10" d="
	M212.169,105.027"/>
<path fill="none" stroke="#000000" stroke-width="15" stroke-linecap="round" stroke-linejoin="round" stroke-miterlimit="10" d="
	M299.96,66.741"/>
<path fill="none" stroke="#000000" stroke-width="15" stroke-linecap="round" stroke-linejoin="round" stroke-miterlimit="10" d="
	M212.169,106.027"/>
<path fill="none" stroke="#000000" stroke-width="15" stroke-linecap="round" stroke-linejoin="round" stroke-miterlimit="10" d="
	M299.96,67.741"/>
<path fill="none" stroke="#000000" stroke-width="15" stroke-linecap="round" stroke-linejoin="round" stroke-miterlimit="10" d="
	M212.169,107.027"/>
<path fill="none" stroke="#000000" stroke-width="15" stroke-linecap="round" stroke-linejoin="round" stroke-miterlimit="10" d="
	M299.96,68.741"/>
<path fill="none" stroke="#000000" stroke-width="15" stroke-linecap="round" stroke-linejoin="round" stroke-miterlimit="10" d="
	M212.169,108.027"/>
<path fill="none" stroke="#000000" stroke-width="15" stroke-linecap="round" stroke-linejoin="round" stroke-miterlimit="10" d="
	M299.96,69.741"/>
</svg>
